<svg xmlns="http://www.w3.org/2000/svg" width="24" height="24"><path d="M22.171.329a1.126 1.126 0 0 0-1.591 0l-4.738 4.738a13.22 13.22 0 0 0-3.841-.568c-5.234 0-9.771 3.048-12 7.5a13.741 13.741 0 0 0 4.055 4.854L.33 20.579a1.126 1.126 0 0 0 1.591 1.592l20.25-20.25a1.126 1.126 0 0 0 0-1.591zM9.75 7.5c.99 0 1.83.64 2.131 1.528l-2.853 2.853A2.251 2.251 0 0 1 9.75 7.5zM2.581 12a11.409 11.409 0 0 1 3.502-3.523c.092-.059.185-.115.278-.171A5.992 5.992 0 0 0 6 10.359c0 1.286.405 2.478 1.095 3.455l-1.428 1.428A11.435 11.435 0 0 1 2.581 12zM18 10.359c0-.637-.1-1.25-.284-1.826l-7.542 7.542A6 6 0 0 0 18 10.358z"/><path d="m19.454 6.796-1.626 1.626.089.056a11.398 11.398 0 0 1 3.502 3.523 11.42 11.42 0 0 1-3.502 3.523 10.986 10.986 0 0 1-8.588 1.398l-1.802 1.802a13.2 13.2 0 0 0 4.473.777c5.234 0 9.771-3.048 12-7.5a13.73 13.73 0 0 0-4.546-5.204z" fill="#3e3c49"/></svg>
