<svg xmlns="http://www.w3.org/2000/svg" width="24" height="24"><path d="M12 4.5C6.766 4.5 2.229 7.548 0 12c2.229 4.452 6.766 7.5 12 7.5s9.771-3.048 12-7.5c-2.229-4.452-6.766-7.5-12-7.5zm5.917 3.977A11.398 11.398 0 0 1 21.419 12a11.42 11.42 0 0 1-3.502 3.523c-1.772 1.13-3.818 1.727-5.917 1.727s-4.145-.597-5.917-1.727A11.398 11.398 0 0 1 2.581 12a11.409 11.409 0 0 1 3.502-3.523c.092-.059.185-.115.278-.171a6 6 0 1 0 11.278 0c.093.056.186.113.278.171zM12 9.75a2.25 2.25 0 1 1-4.5 0 2.25 2.25 0 0 1 4.5 0z" fill="#3e3c49"/></svg>
